<?xml version="1.0" encoding="UTF-8" standalone="no"?>
<!-- Created with Inkscape (http://www.inkscape.org/) -->

<svg
   width="1024"
   height="1024"
   viewBox="0 0 1024 1024"
   version="1.1"
   id="svg1"
   xml:space="preserve"
   inkscape:version="1.4 (86a8ad7, 2024-10-11)"
   sodipodi:docname="oxide-icon.svg"
   inkscape:export-filename="oxide-icon-192.png"
   inkscape:export-xdpi="18"
   inkscape:export-ydpi="18"
   xmlns:inkscape="http://www.inkscape.org/namespaces/inkscape"
   xmlns:sodipodi="http://sodipodi.sourceforge.net/DTD/sodipodi-0.dtd"
   xmlns:xlink="http://www.w3.org/1999/xlink"
   xmlns="http://www.w3.org/2000/svg"
   xmlns:svg="http://www.w3.org/2000/svg"><sodipodi:namedview
     id="namedview1"
     pagecolor="#ffffff"
     bordercolor="#000000"
     borderopacity="0.25"
     inkscape:showpageshadow="2"
     inkscape:pageopacity="0.0"
     inkscape:pagecheckerboard="0"
     inkscape:deskcolor="#d1d1d1"
     inkscape:document-units="px"
     inkscape:zoom="0.55203406"
     inkscape:cx="881.2862"
     inkscape:cy="631.30163"
     inkscape:window-width="5120"
     inkscape:window-height="1369"
     inkscape:window-x="2552"
     inkscape:window-y="-8"
     inkscape:window-maximized="1"
     inkscape:current-layer="layer1" /><defs
     id="defs1"><linearGradient
       id="linearGradient19"
       inkscape:collect="always"><stop
         style="stop-color:#1b2637;stop-opacity:1;"
         offset="0"
         id="stop19" /><stop
         style="stop-color:#06070c;stop-opacity:1;"
         offset="1"
         id="stop20" /></linearGradient><linearGradient
       id="linearGradient12"
       inkscape:collect="always"><stop
         style="stop-color:#b6bdb9;stop-opacity:1;"
         offset="0"
         id="stop12" /><stop
         style="stop-color:#33404b;stop-opacity:1;"
         offset="1"
         id="stop13" /></linearGradient><linearGradient
       inkscape:collect="always"
       xlink:href="#linearGradient12"
       id="linearGradient13"
       x1="509.91336"
       y1="125.3877"
       x2="509.91336"
       y2="691.33936"
       gradientUnits="userSpaceOnUse" /><linearGradient
       inkscape:collect="always"
       xlink:href="#linearGradient12"
       id="linearGradient18"
       x1="513.2392"
       y1="776.97516"
       x2="513.2392"
       y2="968.08655"
       gradientUnits="userSpaceOnUse"
       gradientTransform="matrix(1.0077544,0,0,1.0077544,-3.9682101,-5.7719582)" /><linearGradient
       inkscape:collect="always"
       xlink:href="#linearGradient19"
       id="linearGradient20"
       x1="217.75496"
       y1="-10.611897"
       x2="621.79376"
       y2="1038.4546"
       gradientUnits="userSpaceOnUse"
       gradientTransform="matrix(1,0,0,0.47937143,0,1.7568359e-5)" /><linearGradient
       inkscape:collect="always"
       xlink:href="#linearGradient12"
       id="linearGradient21"
       gradientUnits="userSpaceOnUse"
       x1="509.91336"
       y1="125.3877"
       x2="509.91336"
       y2="691.33936"
       gradientTransform="matrix(0.56516829,0,0,0.56516829,13.163954,233.80464)" /><linearGradient
       inkscape:collect="always"
       xlink:href="#linearGradient12"
       id="linearGradient1"
       gradientUnits="userSpaceOnUse"
       x1="509.91336"
       y1="125.3877"
       x2="509.91336"
       y2="691.33936" /><linearGradient
       inkscape:collect="always"
       xlink:href="#linearGradient12"
       id="linearGradient2"
       gradientUnits="userSpaceOnUse"
       x1="509.91336"
       y1="125.3877"
       x2="509.91336"
       y2="691.33936" /><linearGradient
       inkscape:collect="always"
       xlink:href="#linearGradient12"
       id="linearGradient3"
       gradientUnits="userSpaceOnUse"
       x1="509.91336"
       y1="125.3877"
       x2="509.91336"
       y2="691.33936" /></defs><g
     inkscape:label="Layer 1"
     inkscape:groupmode="layer"
     id="layer1"><rect
       style="fill:url(#linearGradient20);fill-opacity:1;stroke:none;stroke-width:18.1788;stroke-dasharray:none;stroke-opacity:1;paint-order:markers fill stroke"
       id="rect11"
       width="1024"
       height="1024"
       x="0"
       y="0" /><path
       id="path11"
       style="fill:url(#linearGradient18);fill-opacity:1;stroke:#d5f0e8;stroke-width:6.04652;stroke-dasharray:none;stroke-opacity:1;paint-order:stroke fill markers"
       d="m 503.35972,791.37612 v 53.15905 53.15905 h 11.08528 11.08532 v -52.84413 -52.84412 l -11.08722,-0.31493 z m -45.24859,0.30114 -15.02381,0.30115 -16.89762,17.66919 -16.89952,17.66717 -16.99015,-17.66717 -16.99203,-17.66722 -15.08087,-0.30114 c -8.29532,-0.16614 -15.08175,-0.0699 -15.08094,0.21453 8.8e-4,0.4201 31.27325,34.08443 44.97305,48.41355 l 3.42476,3.58227 -19.79098,21.10772 c -10.88455,11.60949 -22.3262,23.71531 -25.42604,26.90231 l -5.63516,5.7946 h 15.13597 15.13596 l 18.07466,-19.1867 18.0746,-19.18867 13.10473,13.89796 c 7.20695,7.64351 15.37451,16.29249 18.15148,19.22211 l 5.04854,5.32813 14.73258,-0.28935 14.73247,-0.28736 -17.57273,-18.64345 c -9.66456,-10.25391 -20.98025,-22.36465 -25.14661,-26.91414 l -7.57388,-8.27263 24.01873,-25.24113 c 13.21087,-13.88262 24.13329,-25.57812 24.27279,-25.991 0.13949,-0.41289 -6.50698,-0.61653 -14.76998,-0.45073 z m 100.67902,0.13185 v 52.94256 52.94255 h 47.18336 c 40.19148,0 47.98029,-0.23728 52.57648,-1.6022 20.97439,-6.22874 26.85625,-25.23069 23.06811,-74.5128 -0.74858,-9.7374 -2.95354,-14.52893 -9.44378,-20.51135 -9.72353,-8.9629 -7.45979,-8.64474 -63.75226,-8.97139 z m 205.07803,0.0707 c -28.54465,0 -52.23947,0.11336 -52.65517,0.25193 -0.67861,0.2262 -0.7415,15.13314 -0.36411,84.65139 l 0.11219,20.91091 h 52.40323 52.40324 V 887.1126 876.53117 h -41.31793 -41.31794 v -11.0853 -11.08528 h 37.2869 37.28694 v -10.07751 -10.07753 h -37.28694 -37.2869 v -10.60307 -10.60309 l 41.31996,0.2736 41.31793,0.27359 v -10.83332 -10.83335 z m -542.17191,0.50387 -4.53491,2.37374 c -15.28742,8.0039 -16.56192,11.56873 -16.93501,47.31132 -0.39654,37.99554 1.11046,43.34478 14.3979,51.13174 8.00196,4.68947 77.75218,6.88922 91.26085,2.8776 18.51003,-5.49689 21.11365,-11.94638 21.10781,-52.29892 -0.0103,-33.40963 -0.43021,-35.44558 -9.02453,-43.19369 -9.24737,-8.33691 -8.33485,-8.20179 -54.95418,-8.20179 z m 62.27216,20.42082 c 6.6415,0.32176 11.72794,0.98953 13.6165,2.06669 9.25824,5.28049 9.53021,55.32213 0.32671,60.08145 -4.65039,2.40481 -64.8866,2.30141 -68.7851,-0.11806 -5.60362,-3.47773 -5.91865,-5.10219 -5.91865,-30.55542 v -23.37519 l 3.33032,-3.33031 c 3.58337,-3.58335 37.50581,-5.73445 57.43022,-4.76912 z m 298.00008,0.11424 33.00395,0.31294 c 45.56603,0.43404 43.58539,-1.00889 43.58539,31.77774 0,32.43666 2.13018,30.90611 -43.58539,31.30927 L 581.96851,876.61 v -31.84661 z"
       sodipodi:nodetypes="cccccccccsccccccsscccccccccccccccccsscccssssccssccccccccccccccccccccccsccssscsscssssscssccssccc" /><g
       id="g12"
       transform="matrix(1.3673892,0,0,1.3673892,-184.787,-105.29795)"
       style="fill:url(#linearGradient13);stroke:#afe0d3;stroke-width:2.94797;stroke-linecap:butt;stroke-linejoin:miter;stroke-dasharray:none;stroke-opacity:0.376038;paint-order:stroke fill markers"><path
         id="path1"
         transform="translate(18.275813,-0.96188491)"
         d="m 597.56157,258.26658 c -2.29721,-0.007 -1.71941,-25.7256 -9.48336,-33.48955 -7.76395,-7.76395 -33.43873,-7.38772 -33.43181,-9.68493 0.007,-2.29721 25.72903,-1.72284 33.48955,-9.48336 7.76052,-7.76052 7.38772,-33.43873 9.68493,-33.43181 2.29721,0.007 1.79686,25.80306 9.48335,33.48955 7.68649,7.68649 33.43874,7.38772 33.43182,9.68493 -0.007,2.29721 -25.69725,1.69106 -33.48955,9.48336 -7.7923,7.7923 -7.38772,33.43873 -9.68493,33.43181 z"
         sodipodi:nodetypes="szszszszs"
         style="fill:url(#linearGradient1)" /><path
         id="path20"
         d="m 350.88681,379.76873 c -1.29831,-0.004 -0.97176,-14.5393 -5.3597,-18.92724 -4.38793,-4.38793 -18.89851,-4.1753 -18.8946,-5.47361 0.004,-1.29831 14.54124,-0.9737 18.92724,-5.3597 4.386,-4.386 4.1753,-18.89851 5.47361,-18.8946 1.29831,0.004 1.01553,14.58308 5.35969,18.92724 4.34416,4.34416 18.89852,4.1753 18.89461,5.47361 -0.004,1.29831 -14.52328,0.95574 -18.92724,5.3597 -4.40396,4.40396 -4.1753,18.89851 -5.47361,18.8946 z"
         sodipodi:nodetypes="szszszszs"
         style="fill:url(#linearGradient21);stroke-width:1.6661" /><path
         id="path5"
         style="fill:url(#linearGradient2);fill-opacity:1;stroke:#afe0d3;stroke-width:2.94797;stroke-linecap:butt;stroke-linejoin:miter;stroke-dasharray:none;stroke-opacity:0.376038;paint-order:stroke fill markers"
         d="m 512,180.35352 -61.83789,209.6914 -55.30859,55.3086 v 78.87304 l 63.7207,-36.78711 12.67773,21.95703 c 9.12197,-4.04255 18.49608,-8.58546 27.99805,-13.45312 l -1.25,-4.03906 14,-195.64453 13.28125,185.5957 c 6.67006,-3.83594 13.36788,-7.81808 20.08398,-12.01367 23.24198,-14.51938 44.43581,-29.86955 63.0918,-45.17774 l -34.61914,-34.61914 z m 117.14648,289.13086 c -13.6419,10.08557 -28.16007,20.00458 -43.43164,29.66796 l 43.43164,25.07422 z m -84.52539,53.98828 c -17.24597,9.47198 -34.26644,17.87775 -50.91992,25.33593 L 512,634.36328 530.47656,547.97266 Z" /><path
         id="ellipse4"
         style="fill:url(#linearGradient3);fill-opacity:1;stroke:#afe0d3;stroke-width:2.94798;stroke-linecap:butt;stroke-linejoin:miter;stroke-dasharray:none;stroke-opacity:0.376038;paint-order:stroke fill markers"
         d="M 454.93367,590.12892 A 253.84402,86.255562 0 0 0 322.7204,549.95084 l -2.66631,10.47125 a 70.750903,215.76899 88.948539 0 1 98.40996,28.9804 70.750903,215.76899 88.948539 0 1 25.31603,32.42073 70.750903,215.76899 88.948539 0 1 -214.43633,74.6978 A 70.750903,215.76899 88.948539 0 1 12.3135,629.74164 70.750903,215.76899 88.948539 0 1 185.85428,557.23125 l 13.68133,-12.64095 a 253.84402,86.255562 0 0 0 -223.2125,85.62457 253.84402,86.255562 0 0 0 253.84293,86.25449 253.84402,86.255562 0 0 0 253.84517,-86.25554 253.84402,86.255562 0 0 0 -29.07754,-40.0849 z"
         transform="matrix(0.85768809,-0.51417034,0.51048866,0.85988448,0,0)" /></g></g></svg>
