<?xml version="1.0" encoding="UTF-8" standalone="no"?>
<!-- Created with Inkscape (http://www.inkscape.org/) -->

<svg
   version="1.1"
   id="svg1"
   width="1024"
   height="1024"
   viewBox="0 0 1024 1024"
   sodipodi:docname="ion-vortex-logo.svg"
   inkscape:version="1.4 (86a8ad7, 2024-10-11)"
   inkscape:export-filename="ion-vortex.png"
   inkscape:export-xdpi="96"
   inkscape:export-ydpi="96"
   xmlns:inkscape="http://www.inkscape.org/namespaces/inkscape"
   xmlns:sodipodi="http://sodipodi.sourceforge.net/DTD/sodipodi-0.dtd"
   xmlns:xlink="http://www.w3.org/1999/xlink"
   xmlns="http://www.w3.org/2000/svg"
   xmlns:svg="http://www.w3.org/2000/svg">
  <defs
     id="defs1">
    <linearGradient
       id="linearGradient5"
       inkscape:collect="always">
      <stop
         style="stop-color:#0c1b8c;stop-opacity:1;"
         offset="0"
         id="stop5" />
      <stop
         style="stop-color:#1663c4;stop-opacity:1;"
         offset="0.49176729"
         id="stop7" />
      <stop
         style="stop-color:#2ed2d9;stop-opacity:1;"
         offset="1"
         id="stop6" />
    </linearGradient>
    <linearGradient
       inkscape:collect="always"
       xlink:href="#linearGradient5"
       id="linearGradient6"
       x1="-563.3316"
       y1="-665.55615"
       x2="983.63666"
       y2="992.85004"
       gradientUnits="userSpaceOnUse" />
  </defs>
  <sodipodi:namedview
     id="namedview1"
     pagecolor="#ffffff"
     bordercolor="#000000"
     borderopacity="0.25"
     inkscape:showpageshadow="2"
     inkscape:pageopacity="0.0"
     inkscape:pagecheckerboard="0"
     inkscape:deskcolor="#d1d1d1"
     showgrid="false"
     inkscape:zoom="0.5"
     inkscape:cx="-219"
     inkscape:cy="869"
     inkscape:window-width="5120"
     inkscape:window-height="1369"
     inkscape:window-x="2552"
     inkscape:window-y="-8"
     inkscape:window-maximized="1"
     inkscape:current-layer="g1" />
  <g
     inkscape:groupmode="layer"
     inkscape:label="Image"
     id="g1">
    <rect
       style="fill:url(#linearGradient6);fill-opacity:1;stroke:none;stroke-width:41.9483;stroke-dasharray:none;paint-order:stroke fill markers"
       id="rect3"
       width="1024"
       height="1024"
       x="0"
       y="0" />
    <path
       d="m 359.22988,826.67999 v -112 h 31.68 v 112 z m 115.41011,2.24 q -13.44,0 -24.8,-4.32 -11.36,-4.32 -19.84,-12.16 -8.32,-8 -12.96,-18.56 -4.64,-10.56 -4.64,-23.2 0,-12.64 4.64,-23.2 4.64,-10.56 12.96,-18.4 8.48,-8 19.84,-12.32 11.36,-4.32 24.8,-4.32 13.6,0 24.8,4.32 11.36,4.32 19.68,12.32 8.32,7.84 12.96,18.4 4.8,10.56 4.8,23.2 0,12.64 -4.8,23.36 -4.64,10.56 -12.96,18.4 -8.32,7.84 -19.68,12.16 -11.2,4.32 -24.8,4.32 z m 0,-26.24 q 6.4,0 11.84,-2.24 5.6,-2.24 9.6,-6.4 4.16,-4.32 6.4,-10.24 2.4,-5.92 2.4,-13.12 0,-7.36 -2.4,-13.12 -2.24,-5.92 -6.4,-10.08 -4,-4.32 -9.6,-6.56 -5.44,-2.24 -11.84,-2.24 -6.4,0 -12,2.24 -5.44,2.24 -9.6,6.56 -4,4.16 -6.4,10.08 -2.24,5.76 -2.24,13.12 0,7.2 2.24,13.12 2.4,5.92 6.4,10.24 4.16,4.16 9.6,6.4 5.6,2.24 12,2.24 z m 83.57011,24 v -112 h 26.08 l 61.76,74.56 h -12.32 v -74.56 h 31.04 v 112 h -26.08 l -61.76,-74.56 h 12.32 v 74.56 z"
       id="text23"
       style="font-weight:800;font-size:160px;font-family:Montserrat;-inkscape-font-specification:'Montserrat Ultra-Bold';text-align:center;letter-spacing:4.69px;text-anchor:middle;fill:#294ea9;fill-opacity:0.772549;stroke-width:42.1984;paint-order:stroke fill markers"
       aria-label="ION" />
    <path
       style="font-weight:bold;font-size:146.667px;font-family:Montserrat;-inkscape-font-specification:'Montserrat Bold';text-align:center;letter-spacing:4.69px;text-anchor:middle;fill:#294ea9;fill-opacity:0.772549;stroke-width:42.1984;paint-order:stroke fill markers"
       d="M 229.60113,980.66693 185.3077,878.00003 h 25.66672 l 38.72009,90.93354 h -15.1067 l 39.30676,-90.93354 h 23.61339 l -44.4401,102.6669 z m 129.7969,1.76001 q -12.17336,0 -22.58672,-3.96001 -10.26669,-3.96001 -17.89337,-11.1467 -7.48002,-7.18668 -11.73336,-16.8667 -4.10668,-9.68002 -4.10668,-21.12005 0,-11.44003 4.10668,-21.12005 4.25334,-9.68002 11.88002,-16.86671 7.62669,-7.18668 17.89338,-11.14669 10.26669,-3.96001 22.29338,-3.96001 12.17337,0 22.29339,3.96001 10.26669,3.96001 17.74671,11.14669 7.62668,7.18669 11.88002,16.86671 4.25335,9.53335 4.25335,21.12005 0,11.44003 -4.25335,21.26671 -4.25334,9.68003 -11.88002,16.86671 -7.48002,7.04002 -17.74671,11.00003 -10.12002,3.96001 -22.14672,3.96001 z m -0.14667,-20.24005 q 6.89335,0 12.61337,-2.34667 5.86668,-2.34668 10.26669,-6.74669 4.40001,-4.40001 6.74668,-10.41335 2.49334,-6.01335 2.49334,-13.3467 0,-7.33335 -2.49334,-13.3467 -2.34667,-6.01335 -6.74668,-10.41336 -4.25335,-4.40001 -10.12003,-6.74668 -5.86668,-2.34667 -12.76003,-2.34667 -6.89334,0 -12.76003,2.34667 -5.72001,2.34667 -10.12002,6.74668 -4.40001,4.40001 -6.89335,10.41336 -2.34667,6.01335 -2.34667,13.3467 0,7.18668 2.34667,13.3467 2.49334,6.01334 6.74668,10.41335 4.40001,4.40001 10.26669,6.74669 5.86669,2.34667 12.76003,2.34667 z m 78.75683,18.48004 v -102.6669 h 43.85343 q 21.41338,0 33.29341,9.97335 11.88003,9.82669 11.88003,27.28007 0,11.44002 -5.42668,19.80004 -5.42668,8.21335 -15.40004,12.61336 -9.97335,4.40001 -23.76005,4.40001 h -31.24007 l 10.56002,-10.41335 v 39.01342 z m 65.26681,0 -25.66672,-37.25342 h 25.37339 l 25.96006,37.25342 z m -41.50676,-36.37342 -10.56002,-11.14669 h 29.92007 q 11.00002,0 16.4267,-4.69334 5.42668,-4.84001 5.42668,-13.20003 0,-8.50669 -5.42668,-13.20003 -5.42668,-4.69335 -16.4267,-4.69335 h -29.92007 l 10.56002,-11.29336 z m 108.53028,36.37342 v -83.30686 h -32.85341 v -19.36004 h 89.46688 v 19.36004 h -32.85341 v 83.30686 z m 74.06352,0 v -102.6669 h 77.58684 v 19.06671 h -53.97346 v 64.53348 h 55.88013 v 19.06671 z m 21.85338,-42.82677 v -18.48004 h 49.42678 v 18.48004 z m 68.63664,42.82677 44.14677,-60.86681 v 17.30671 l -42.24009,-59.1068 h 26.98673 l 29.18673,41.21343 -11.29336,0.14666 28.74673,-41.36009 h 25.8134 l -41.94677,58.08013 v -17.01337 l 44.44011,61.60014 h -27.42673 l -30.21341,-43.5601 h 10.85336 l -29.7734,43.5601 z"
       id="text24"
       aria-label="VORTEX" />
    <path
       id="path21"
       style="fill:#2ed2d9;fill-opacity:0;stroke-width:52.2636;paint-order:stroke fill markers"
       d="M 536.5293 52.816406 A 238.53678 238.53678 0 0 0 297.99023 291.35547 A 238.53678 238.53678 0 0 0 298.51562 298.69336 A 238.53678 238.53678 0 0 0 297.99023 305.35547 A 238.53678 238.53678 0 0 0 353.9707 458.50977 L 353.7207 458.75977 L 355.44922 460.48828 A 238.53678 238.53678 0 0 0 381.39453 486.43359 L 536.5293 641.56641 L 691.6543 486.4375 A 238.53678 238.53678 0 0 0 717.61133 460.48047 L 719.33398 458.75977 L 719.08789 458.51172 A 238.53678 238.53678 0 0 0 775.06641 305.35547 A 238.53678 238.53678 0 0 0 774.79688 295.11914 A 238.53678 238.53678 0 0 0 775.06641 291.35547 A 238.53678 238.53678 0 0 0 536.5293 52.816406 z " />
    <g
       id="g23">
      <path
         d="m 359.22988,818.67999 v -112 h 31.68 v 112 z m 115.41011,2.24 q -13.44,0 -24.8,-4.32 -11.36,-4.32 -19.84,-12.16 -8.32,-8 -12.96,-18.56 -4.64,-10.56 -4.64,-23.2 0,-12.64 4.64,-23.2 4.64,-10.56 12.96,-18.4 8.48,-8 19.84,-12.32 11.36,-4.32 24.8,-4.32 13.6,0 24.8,4.32 11.36,4.32 19.68,12.32 8.32,7.84 12.96,18.4 4.8,10.56 4.8,23.2 0,12.64 -4.8,23.36 -4.64,10.56 -12.96,18.4 -8.32,7.84 -19.68,12.16 -11.2,4.32 -24.8,4.32 z m 0,-26.24 q 6.4,0 11.84,-2.24 5.6,-2.24 9.6,-6.4 4.16,-4.32 6.4,-10.24 2.4,-5.92 2.4,-13.12 0,-7.36 -2.4,-13.12 -2.24,-5.92 -6.4,-10.08 -4,-4.32 -9.6,-6.56 -5.44,-2.24 -11.84,-2.24 -6.4,0 -12,2.24 -5.44,2.24 -9.6,6.56 -4,4.16 -6.4,10.08 -2.24,5.76 -2.24,13.12 0,7.2 2.24,13.12 2.4,5.92 6.4,10.24 4.16,4.16 9.6,6.4 5.6,2.24 12,2.24 z m 83.57011,24 v -112 h 26.08 l 61.76,74.56 h -12.32 v -74.56 h 31.04 v 112 h -26.08 l -61.76,-74.56 h 12.32 v 74.56 z"
         id="text2"
         style="font-weight:800;font-size:160px;font-family:Montserrat;-inkscape-font-specification:'Montserrat Ultra-Bold';text-align:center;letter-spacing:4.69px;text-anchor:middle;fill:#ffffff;stroke-width:42.1984;paint-order:stroke fill markers"
         aria-label="ION" />
      <path
         style="font-weight:bold;font-size:146.667px;font-family:Montserrat;-inkscape-font-specification:'Montserrat Bold';text-align:center;letter-spacing:4.69px;text-anchor:middle;fill:#ffffff;stroke-width:42.1984;paint-order:stroke fill markers"
         d="M 229.60113,972.66693 185.3077,870.00003 h 25.66672 l 38.72009,90.93354 h -15.1067 l 39.30676,-90.93354 h 23.61339 l -44.4401,102.6669 z m 129.7969,1.76001 q -12.17336,0 -22.58672,-3.96001 -10.26669,-3.96001 -17.89337,-11.1467 -7.48002,-7.18668 -11.73336,-16.8667 -4.10668,-9.68002 -4.10668,-21.12005 0,-11.44003 4.10668,-21.12005 4.25334,-9.68002 11.88002,-16.86671 7.62669,-7.18668 17.89338,-11.14669 10.26669,-3.96001 22.29338,-3.96001 12.17337,0 22.29339,3.96001 10.26669,3.96001 17.74671,11.14669 7.62668,7.18669 11.88002,16.86671 4.25335,9.53335 4.25335,21.12005 0,11.44003 -4.25335,21.26671 -4.25334,9.68003 -11.88002,16.86671 -7.48002,7.04002 -17.74671,11.00003 -10.12002,3.96001 -22.14672,3.96001 z m -0.14667,-20.24005 q 6.89335,0 12.61337,-2.34667 5.86668,-2.34668 10.26669,-6.74669 4.40001,-4.40001 6.74668,-10.41335 2.49334,-6.01335 2.49334,-13.3467 0,-7.33335 -2.49334,-13.3467 -2.34667,-6.01335 -6.74668,-10.41336 -4.25335,-4.40001 -10.12003,-6.74668 -5.86668,-2.34667 -12.76003,-2.34667 -6.89334,0 -12.76003,2.34667 -5.72001,2.34667 -10.12002,6.74668 -4.40001,4.40001 -6.89335,10.41336 -2.34667,6.01335 -2.34667,13.3467 0,7.18668 2.34667,13.3467 2.49334,6.01334 6.74668,10.41335 4.40001,4.40001 10.26669,6.74669 5.86669,2.34667 12.76003,2.34667 z m 78.75683,18.48004 v -102.6669 h 43.85343 q 21.41338,0 33.29341,9.97335 11.88003,9.82669 11.88003,27.28007 0,11.44002 -5.42668,19.80004 -5.42668,8.21335 -15.40004,12.61336 -9.97335,4.40001 -23.76005,4.40001 h -31.24007 l 10.56002,-10.41335 v 39.01342 z m 65.26681,0 -25.66672,-37.25342 h 25.37339 l 25.96006,37.25342 z m -41.50676,-36.37342 -10.56002,-11.14669 h 29.92007 q 11.00002,0 16.4267,-4.69334 5.42668,-4.84001 5.42668,-13.20003 0,-8.50669 -5.42668,-13.20003 -5.42668,-4.69335 -16.4267,-4.69335 h -29.92007 l 10.56002,-11.29336 z m 108.53028,36.37342 v -83.30686 h -32.85341 v -19.36004 h 89.46688 v 19.36004 h -32.85341 v 83.30686 z m 74.06352,0 v -102.6669 h 77.58684 v 19.06671 h -53.97346 v 64.53348 h 55.88013 v 19.06671 z m 21.85338,-42.82677 v -18.48004 h 49.42678 v 18.48004 z m 68.63664,42.82677 44.14677,-60.86681 v 17.30671 l -42.24009,-59.1068 h 26.98673 l 29.18673,41.21343 -11.29336,0.14666 28.74673,-41.36009 h 25.8134 l -41.94677,58.08013 v -17.01337 l 44.44011,61.60014 h -27.42673 l -30.21341,-43.5601 h 10.85336 l -29.7734,43.5601 z"
         id="text3"
         aria-label="VORTEX" />
    </g>
    <path
       id="path22"
       style="fill:#294ea9;fill-opacity:0.77254903;stroke-width:2.95943;paint-order:stroke fill markers"
       d="m 299.354,299.353 c 0.0138,71.59433 56.60631,131.71156 120.93127,155.69794 55.10924,23.77514 133.81419,11.97689 173.83954,-37.15592 50.79688,-62.35532 51.65527,-106.38393 22.93914,-159.05998 -24.34848,-46.33644 -91.83288,-72.45082 -136.11335,-38.19071 -23.42966,16.7324 -34.88386,62.06502 -29.47911,79.74083 20.3161,-25.1912 53.17949,-50.25988 87.24438,-38.35869 44.0797,19.33273 45.53593,86.09238 10.83738,115.09854 -40.14023,41.81401 -114.00291,43.16696 -154.49876,1.03758 -32.08571,-27.17784 -50.22383,-70.8239 -42.29258,-112.67937 5.56171,-70.76499 61.76201,-133.19243 131.34041,-146.87253 84.56299,-22.023803 168.69207,18.70747 205.96571,100.85576 61.14855,124.9694 -32.81419,241.77839 -107.1687,282.16947 -69.74341,37.88623 -118.91754,23.77689 -143.96384,36.31135 l 97.60938,97.63119 C 658.59098,517.09873 769.11212,443.95496 774.01735,283.9704 768.88781,167.3827 666.05108,61.882891 547.90588,61.259274 418.90258,54.79696 300.28271,149.00983 299.354,299.353 Z"
       sodipodi:nodetypes="ccscccccccccsccccc" />
    <path
       id="rect1"
       style="fill:#ffffff;fill-opacity:1;stroke-width:2.95943;paint-order:stroke fill markers"
       d="m 299.354,291.353 c 0.0138,71.59433 56.60631,131.71156 120.93127,155.69794 55.10924,23.77514 133.81419,11.97689 173.83954,-37.15592 50.79688,-62.35532 51.65527,-106.38393 22.93914,-159.05998 -24.34848,-46.33644 -91.83288,-72.45082 -136.11335,-38.19071 -23.42966,16.7324 -34.88386,62.06502 -29.47911,79.74083 20.3161,-25.1912 53.17949,-50.25988 87.24438,-38.35869 44.0797,19.33273 45.53593,86.09238 10.83738,115.09854 -40.14023,41.81401 -114.00291,43.16696 -154.49876,1.03758 -32.08571,-27.17784 -50.22383,-70.8239 -42.29258,-112.67937 5.56171,-70.76499 61.76201,-133.19243 131.34041,-146.87253 84.56299,-22.023803 168.69207,18.70747 205.96571,100.85576 61.14855,124.9694 -32.81419,241.77839 -107.1687,282.16947 -69.74341,37.88623 -118.91754,23.77689 -143.96384,36.31135 l 97.60938,97.63119 C 658.59098,509.09873 769.11212,435.95496 774.01735,275.9704 768.88781,159.3827 666.05108,53.882891 547.90588,53.259274 418.90258,46.79696 300.28271,141.00983 299.354,291.353 Z"
       sodipodi:nodetypes="ccscccccccccsccccc" />
  </g>
</svg>
