<?xml version="1.0" encoding="UTF-8" standalone="no"?>
<!-- Created with Inkscape (http://www.inkscape.org/) -->

<svg
   width="640"
   height="320"
   viewBox="0 0 640 320"
   version="1.1"
   id="svg1"
   xml:space="preserve"
   inkscape:version="1.4 (86a8ad7, 2024-10-11)"
   sodipodi:docname="ion-vortex-banner.svg"
   inkscape:export-filename="ion-oxide-banner.png"
   inkscape:export-xdpi="192"
   inkscape:export-ydpi="192"
   xmlns:inkscape="http://www.inkscape.org/namespaces/inkscape"
   xmlns:sodipodi="http://sodipodi.sourceforge.net/DTD/sodipodi-0.dtd"
   xmlns:xlink="http://www.w3.org/1999/xlink"
   xmlns="http://www.w3.org/2000/svg"
   xmlns:svg="http://www.w3.org/2000/svg"><sodipodi:namedview
     id="namedview1"
     pagecolor="#ffffff"
     bordercolor="#000000"
     borderopacity="0.25"
     inkscape:showpageshadow="2"
     inkscape:pageopacity="0.0"
     inkscape:pagecheckerboard="0"
     inkscape:deskcolor="#d1d1d1"
     inkscape:document-units="px"
     inkscape:zoom="1.1040681"
     inkscape:cx="312.02785"
     inkscape:cy="-102.80163"
     inkscape:window-width="5120"
     inkscape:window-height="1369"
     inkscape:window-x="2552"
     inkscape:window-y="-8"
     inkscape:window-maximized="1"
     inkscape:current-layer="layer1" /><defs
     id="defs1"><linearGradient
       id="linearGradient19"
       inkscape:collect="always"><stop
         style="stop-color:#0c1b8c;stop-opacity:1;"
         offset="0"
         id="stop19" /><stop
         style="stop-color:#1663c4;stop-opacity:1;"
         offset="0.50164652"
         id="stop1" /><stop
         style="stop-color:#2ed2d9;stop-opacity:1;"
         offset="1"
         id="stop20" /></linearGradient><linearGradient
       inkscape:collect="always"
       xlink:href="#linearGradient19"
       id="linearGradient20"
       x1="64.911133"
       y1="-984.56671"
       x2="1294.3066"
       y2="759.42969"
       gradientUnits="userSpaceOnUse"
       gradientTransform="matrix(0.53333335,0,0,0.51612906,0,2.5563236e-5)" /></defs><g
     inkscape:label="Layer 1"
     inkscape:groupmode="layer"
     id="layer1"><rect
       style="fill:url(#linearGradient20);fill-opacity:1;stroke:none;stroke-width:13.7755;stroke-dasharray:none;stroke-opacity:1;paint-order:markers fill stroke"
       id="rect11"
       width="640"
       height="320"
       x="0"
       y="0" /><g
       id="g25"
       transform="matrix(0.37030191,0,0,0.37030191,-56.619143,29.165574)"><path
         id="path22"
         style="fill:#294ea9;fill-opacity:0.772549;stroke-width:2.95943;paint-order:stroke fill markers"
         d="m 299.354,299.353 c 0.0138,71.59433 56.60631,131.71156 120.93127,155.69794 55.10924,23.77514 133.81419,11.97689 173.83954,-37.15592 50.79688,-62.35532 51.65527,-106.38393 22.93914,-159.05998 -24.34848,-46.33644 -91.83288,-72.45082 -136.11335,-38.19071 -23.42966,16.7324 -34.88386,62.06502 -29.47911,79.74083 20.3161,-25.1912 53.17949,-50.25988 87.24438,-38.35869 44.0797,19.33273 45.53593,86.09238 10.83738,115.09854 -40.14023,41.81401 -114.00291,43.16696 -154.49876,1.03758 -32.08571,-27.17784 -50.22383,-70.8239 -42.29258,-112.67937 5.56171,-70.76499 61.76201,-133.19243 131.34041,-146.87253 84.56299,-22.023803 168.69207,18.70747 205.96571,100.85576 61.14855,124.9694 -32.81419,241.77839 -107.1687,282.16947 -69.74341,37.88623 -118.91754,23.77689 -143.96384,36.31135 l 97.60938,97.63119 C 658.59098,517.09873 769.11212,443.95496 774.01735,283.9704 768.88781,167.3827 666.05108,61.882891 547.90588,61.259274 418.90258,54.79696 300.28271,149.00983 299.354,299.353 Z"
         sodipodi:nodetypes="ccscccccccccsccccc" /><path
         id="rect1"
         style="fill:#ffffff;fill-opacity:1;stroke-width:2.95943;paint-order:stroke fill markers"
         d="m 299.354,291.353 c 0.0138,71.59433 56.60631,131.71156 120.93127,155.69794 55.10924,23.77514 133.81419,11.97689 173.83954,-37.15592 50.79688,-62.35532 51.65527,-106.38393 22.93914,-159.05998 -24.34848,-46.33644 -91.83288,-72.45082 -136.11335,-38.19071 -23.42966,16.7324 -34.88386,62.06502 -29.47911,79.74083 20.3161,-25.1912 53.17949,-50.25988 87.24438,-38.35869 44.0797,19.33273 45.53593,86.09238 10.83738,115.09854 -40.14023,41.81401 -114.00291,43.16696 -154.49876,1.03758 -32.08571,-27.17784 -50.22383,-70.8239 -42.29258,-112.67937 5.56171,-70.76499 61.76201,-133.19243 131.34041,-146.87253 84.56299,-22.023803 168.69207,18.70747 205.96571,100.85576 61.14855,124.9694 -32.81419,241.77839 -107.1687,282.16947 -69.74341,37.88623 -118.91754,23.77689 -143.96384,36.31135 l 97.60938,97.63119 C 658.59098,509.09873 769.11212,435.95496 774.01735,275.9704 768.88781,159.3827 666.05108,53.882891 547.90588,53.259274 418.90258,46.79696 300.28271,141.00983 299.354,291.353 Z"
         sodipodi:nodetypes="ccscccccccccsccccc" /></g><path
       d="M 341.01786,151.93237 V 97.998775 h 15.2555 v 53.933595 z m 55.57573,1.07867 q -6.47203,0 -11.94244,-2.08029 -5.4704,-2.0803 -9.55395,-5.85565 -4.00649,-3.8524 -6.24088,-8.93757 -2.2344,-5.08516 -2.2344,-11.17196 0,-6.08679 2.2344,-11.17196 2.23439,-5.08516 6.24088,-8.86051 4.08355,-3.8524 9.55395,-5.932701 5.47041,-2.080295 11.94244,-2.080295 6.54908,0 11.94244,2.080295 5.47041,2.080301 9.47691,5.932701 4.00649,3.77535 6.24088,8.86051 2.31144,5.08517 2.31144,11.17196 0,6.0868 -2.31144,11.24901 -2.23439,5.08517 -6.24088,8.86052 -4.0065,3.77535 -9.47691,5.85565 -5.39336,2.08029 -11.94244,2.08029 z m 0,-12.63587 q 3.08192,0 5.70156,-1.07867 2.69668,-1.07867 4.62288,-3.08192 2.00324,-2.08029 3.08192,-4.93107 1.15572,-2.85078 1.15572,-6.31794 0,-3.5442 -1.15572,-6.31793 -1.07868,-2.85078 -3.08192,-4.85403 -1.9262,-2.08029 -4.62288,-3.15896 -2.61964,-1.07868 -5.70156,-1.07868 -3.08192,0 -5.7786,1.07868 -2.61963,1.07867 -4.62288,3.15896 -1.9262,2.00325 -3.08192,4.85403 -1.07867,2.77373 -1.07867,6.31793 0,3.46716 1.07867,6.31794 1.15572,2.85078 3.08192,4.93107 2.00325,2.00325 4.62288,3.08192 2.69668,1.07867 5.7786,1.07867 z m 40.24319,11.5572 V 97.998775 h 12.55882 l 29.74053,35.904365 h -5.9327 V 97.998775 h 14.94731 v 53.933595 h -12.55882 l -29.74053,-35.90436 h 5.9327 v 35.90436 z"
       id="text23"
       style="font-weight:800;font-size:77.048px;font-family:Montserrat;-inkscape-font-specification:'Montserrat Ultra-Bold';text-align:center;letter-spacing:2.25847px;text-anchor:middle;fill:#294ea9;fill-opacity:0.772549;stroke-width:20.3206;paint-order:stroke fill markers"
       aria-label="ION" /><path
       style="font-weight:bold;font-size:70.6275px;font-family:Montserrat;-inkscape-font-specification:'Montserrat Bold';text-align:center;letter-spacing:2.25847px;text-anchor:middle;fill:#294ea9;fill-opacity:0.772549;stroke-width:20.3206;paint-order:stroke fill markers"
       d="m 278.59514,226.08479 -21.32951,-49.43925 h 12.35981 l 18.64567,43.78905 h -7.27464 l 18.92817,-43.78905 h 11.37103 l -21.40013,49.43925 z m 62.5037,0.84753 q -5.86209,0 -10.87664,-1.90694 -4.94392,-1.90694 -8.61655,-5.36769 -3.60201,-3.46075 -5.6502,-8.12216 -1.97757,-4.66142 -1.97757,-10.17036 0,-5.50895 1.97757,-10.17036 2.04819,-4.66142 5.72082,-8.12217 3.67263,-3.46074 8.61656,-5.36769 4.94392,-1.90694 10.73538,-1.90694 5.86208,0 10.73538,1.90694 4.94393,1.90695 8.54593,5.36769 3.67263,3.46075 5.72083,8.12217 2.04819,4.59078 2.04819,10.17036 0,5.50894 -2.04819,10.24099 -2.0482,4.66141 -5.72083,8.12216 -3.602,3.39012 -8.54593,5.29706 -4.8733,1.90694 -10.66475,1.90694 z m -0.0706,-9.74659 q 3.31949,0 6.07396,-1.13004 2.8251,-1.13004 4.94393,-3.24887 2.11883,-2.11882 3.24887,-5.01455 1.20066,-2.89573 1.20066,-6.4271 0,-3.53138 -1.20066,-6.42711 -1.13004,-2.89572 -3.24887,-5.01455 -2.0482,-2.11882 -4.8733,-3.24886 -2.8251,-1.13004 -6.14459,-1.13004 -3.31949,0 -6.14459,1.13004 -2.75448,1.13004 -4.8733,3.24886 -2.11883,2.11883 -3.31949,5.01455 -1.13004,2.89573 -1.13004,6.42711 0,3.46074 1.13004,6.4271 1.20066,2.89573 3.24886,5.01455 2.11883,2.11883 4.94393,3.24887 2.8251,1.13004 6.14459,1.13004 z m 37.92535,8.89906 v -49.43925 h 21.11763 q 10.31161,0 16.03244,4.80267 5.72083,4.73204 5.72083,13.13672 0,5.50894 -2.61322,9.53471 -2.61322,3.95514 -7.41589,6.07397 -4.80267,2.11882 -11.44165,2.11882 h -15.04366 l 5.08518,-5.01455 v 18.78691 z m 31.42924,0 -12.35981,-17.93938 h 12.21856 l 12.50106,17.93938 z m -19.98758,-17.51562 -5.08518,-5.36769 h 14.40801 q 5.29706,0 7.91028,-2.26008 2.61322,-2.33071 2.61322,-6.35647 0,-4.0964 -2.61322,-6.35648 -2.61322,-2.26008 -7.91028,-2.26008 h -14.40801 l 5.08518,-5.43832 z m 52.26277,17.51562 v -40.11642 h -15.82056 v -9.32283 h 43.08278 v 9.32283 h -15.82056 v 40.11642 z m 35.66528,0 v -49.43925 h 37.36195 v 9.18158 H 489.6943 v 31.0761 h 26.90907 v 9.18157 z m 10.5235,-20.62323 v -8.89906 h 23.80146 v 8.89906 z m 33.05198,20.62323 21.25887,-29.31041 v 8.33404 L 522.8169,176.64554 h 12.99546 l 14.05488,19.84633 -5.43832,0.0706 13.84299,-19.91696 h 12.43044 l -20.19947,27.96849 v -8.19279 l 21.40014,29.66355 h -13.20735 l -14.54926,-20.97637 h 5.22643 l -14.33738,20.97637 z"
       id="text24"
       aria-label="VORTEX" /><path
       d="M 341.01786,148.07996 V 94.146358 h 15.2555 v 53.933602 z m 55.57573,1.07867 q -6.47203,0 -11.94244,-2.0803 -5.4704,-2.08029 -9.55395,-5.85565 -4.00649,-3.8524 -6.24088,-8.93756 -2.2344,-5.08517 -2.2344,-11.17196 0,-6.08679 2.2344,-11.17196 2.23439,-5.08517 6.24088,-8.86052 4.08355,-3.852402 9.55395,-5.932698 5.47041,-2.080295 11.94244,-2.080295 6.54908,0 11.94244,2.080295 5.47041,2.080296 9.47691,5.932698 4.00649,3.77535 6.24088,8.86052 2.31144,5.08517 2.31144,11.17196 0,6.08679 -2.31144,11.249 -2.23439,5.08517 -6.24088,8.86052 -4.0065,3.77536 -9.47691,5.85565 -5.39336,2.0803 -11.94244,2.0803 z m 0,-12.63587 q 3.08192,0 5.70156,-1.07868 2.69668,-1.07867 4.62288,-3.08192 2.00324,-2.08029 3.08192,-4.93107 1.15572,-2.85077 1.15572,-6.31793 0,-3.54421 -1.15572,-6.31794 -1.07868,-2.85077 -3.08192,-4.85402 -1.9262,-2.0803 -4.62288,-3.15897 -2.61964,-1.07867 -5.70156,-1.07867 -3.08192,0 -5.7786,1.07867 -2.61963,1.07867 -4.62288,3.15897 -1.9262,2.00325 -3.08192,4.85402 -1.07867,2.77373 -1.07867,6.31794 0,3.46716 1.07867,6.31793 1.15572,2.85078 3.08192,4.93107 2.00325,2.00325 4.62288,3.08192 2.69668,1.07868 5.7786,1.07868 z m 40.24319,11.5572 V 94.146358 h 12.55882 l 29.74053,35.904362 h -5.9327 V 94.146358 h 14.94731 v 53.933602 h -12.55882 l -29.74053,-35.90437 h 5.9327 v 35.90437 z"
       id="text2"
       style="font-weight:800;font-size:77.048px;font-family:Montserrat;-inkscape-font-specification:'Montserrat Ultra-Bold';text-align:center;letter-spacing:2.25847px;text-anchor:middle;fill:#ffffff;stroke-width:20.3206;paint-order:stroke fill markers"
       aria-label="ION" /><path
       style="font-weight:bold;font-size:70.6275px;font-family:Montserrat;-inkscape-font-specification:'Montserrat Bold';text-align:center;letter-spacing:2.25847px;text-anchor:middle;fill:#ffffff;stroke-width:20.3206;paint-order:stroke fill markers"
       d="m 278.59514,222.23238 -21.32951,-49.43926 h 12.35981 l 18.64567,43.78906 h -7.27464 l 18.92817,-43.78906 h 11.37103 l -21.40013,49.43926 z m 62.5037,0.84753 q -5.86209,0 -10.87664,-1.90695 -4.94392,-1.90694 -8.61655,-5.36769 -3.60201,-3.46074 -5.6502,-8.12216 -1.97757,-4.66141 -1.97757,-10.17036 0,-5.50894 1.97757,-10.17036 2.04819,-4.66142 5.72082,-8.12216 3.67263,-3.46075 8.61656,-5.36769 4.94392,-1.90695 10.73538,-1.90695 5.86208,0 10.73538,1.90695 4.94393,1.90694 8.54593,5.36769 3.67263,3.46074 5.72083,8.12216 2.04819,4.59079 2.04819,10.17036 0,5.50895 -2.04819,10.24099 -2.0482,4.66141 -5.72083,8.12216 -3.602,3.39012 -8.54593,5.29706 -4.8733,1.90695 -10.66475,1.90695 z m -0.0706,-9.7466 q 3.31949,0 6.07396,-1.13004 2.8251,-1.13004 4.94393,-3.24886 2.11883,-2.11883 3.24887,-5.01456 1.20066,-2.89572 1.20066,-6.4271 0,-3.53137 -1.20066,-6.4271 -1.13004,-2.89573 -3.24887,-5.01456 -2.0482,-2.11882 -4.8733,-3.24886 -2.8251,-1.13004 -6.14459,-1.13004 -3.31949,0 -6.14459,1.13004 -2.75448,1.13004 -4.8733,3.24886 -2.11883,2.11883 -3.31949,5.01456 -1.13004,2.89573 -1.13004,6.4271 0,3.46075 1.13004,6.4271 1.20066,2.89573 3.24886,5.01456 2.11883,2.11882 4.94393,3.24886 2.8251,1.13004 6.14459,1.13004 z m 37.92535,8.89907 v -49.43926 h 21.11763 q 10.31161,0 16.03244,4.80267 5.72083,4.73205 5.72083,13.13672 0,5.50895 -2.61322,9.53471 -2.61322,3.95514 -7.41589,6.07397 -4.80267,2.11882 -11.44165,2.11882 h -15.04366 l 5.08518,-5.01455 v 18.78692 z m 31.42924,0 -12.35981,-17.93939 h 12.21856 l 12.50106,17.93939 z m -19.98758,-17.51562 -5.08518,-5.36769 h 14.40801 q 5.29706,0 7.91028,-2.26008 2.61322,-2.33071 2.61322,-6.35648 0,-4.0964 -2.61322,-6.35648 -2.61322,-2.26008 -7.91028,-2.26008 h -14.40801 l 5.08518,-5.43831 z m 52.26277,17.51562 v -40.11643 h -15.82056 v -9.32283 h 43.08278 v 9.32283 h -15.82056 v 40.11643 z m 35.66528,0 v -49.43926 h 37.36195 v 9.18158 H 489.6943 v 31.0761 h 26.90907 v 9.18158 z m 10.5235,-20.62323 v -8.89907 h 23.80146 v 8.89907 z m 33.05198,20.62323 21.25887,-29.31042 v 8.33405 L 522.8169,172.79312 h 12.99546 l 14.05488,19.84633 -5.43832,0.0706 13.84299,-19.91696 h 12.43044 l -20.19947,27.9685 v -8.19279 l 21.40014,29.66355 h -13.20735 l -14.54926,-20.97637 h 5.22643 l -14.33738,20.97637 z"
       id="text3-5"
       aria-label="VORTEX" /></g></svg>
