<?xml version="1.0" encoding="UTF-8" standalone="no"?>
<!-- Created with Inkscape (http://www.inkscape.org/) -->

<svg
   width="1200"
   height="620"
   viewBox="0 0 1200 620"
   version="1.1"
   id="svg1"
   xml:space="preserve"
   inkscape:version="1.4 (86a8ad7, 2024-10-11)"
   sodipodi:docname="oxide-banner.svg"
   inkscape:export-filename="oxide-icon-192.png"
   inkscape:export-xdpi="18"
   inkscape:export-ydpi="18"
   xmlns:inkscape="http://www.inkscape.org/namespaces/inkscape"
   xmlns:sodipodi="http://sodipodi.sourceforge.net/DTD/sodipodi-0.dtd"
   xmlns:xlink="http://www.w3.org/1999/xlink"
   xmlns="http://www.w3.org/2000/svg"
   xmlns:svg="http://www.w3.org/2000/svg"><sodipodi:namedview
     id="namedview1"
     pagecolor="#ffffff"
     bordercolor="#000000"
     borderopacity="0.25"
     inkscape:showpageshadow="2"
     inkscape:pageopacity="0.0"
     inkscape:pagecheckerboard="0"
     inkscape:deskcolor="#d1d1d1"
     inkscape:document-units="px"
     inkscape:zoom="1.1040681"
     inkscape:cx="1136.2524"
     inkscape:cy="245.90874"
     inkscape:window-width="5120"
     inkscape:window-height="1369"
     inkscape:window-x="2552"
     inkscape:window-y="-8"
     inkscape:window-maximized="1"
     inkscape:current-layer="layer1" /><defs
     id="defs1"><linearGradient
       id="linearGradient19"
       inkscape:collect="always"><stop
         style="stop-color:#1b2637;stop-opacity:1;"
         offset="0"
         id="stop19" /><stop
         style="stop-color:#06070c;stop-opacity:1;"
         offset="1"
         id="stop20" /></linearGradient><linearGradient
       id="linearGradient12"
       inkscape:collect="always"><stop
         style="stop-color:#b6bdb9;stop-opacity:1;"
         offset="0"
         id="stop12" /><stop
         style="stop-color:#33404b;stop-opacity:1;"
         offset="1"
         id="stop13" /></linearGradient><linearGradient
       inkscape:collect="always"
       xlink:href="#linearGradient12"
       id="linearGradient13"
       x1="509.91336"
       y1="125.3877"
       x2="509.91336"
       y2="691.33936"
       gradientUnits="userSpaceOnUse" /><linearGradient
       inkscape:collect="always"
       xlink:href="#linearGradient12"
       id="linearGradient18"
       x1="513.2392"
       y1="776.97516"
       x2="513.2392"
       y2="968.08655"
       gradientUnits="userSpaceOnUse"
       gradientTransform="matrix(0.68631297,0,0,0.68631297,-96.232394,-38.031523)" /><linearGradient
       inkscape:collect="always"
       xlink:href="#linearGradient19"
       id="linearGradient20"
       x1="217.75496"
       y1="-10.611897"
       x2="621.79376"
       y2="1038.4546"
       gradientUnits="userSpaceOnUse"
       gradientTransform="matrix(1,0,0,0.47937143,0,289.48601)" /><linearGradient
       inkscape:collect="always"
       xlink:href="#linearGradient12"
       id="linearGradient21"
       gradientUnits="userSpaceOnUse"
       x1="509.91336"
       y1="125.3877"
       x2="509.91336"
       y2="691.33936"
       gradientTransform="matrix(0.56516829,0,0,0.56516829,13.163954,233.80464)" /><linearGradient
       inkscape:collect="always"
       xlink:href="#linearGradient12"
       id="linearGradient1"
       gradientUnits="userSpaceOnUse"
       x1="509.91336"
       y1="125.3877"
       x2="509.91336"
       y2="691.33936" /><linearGradient
       inkscape:collect="always"
       xlink:href="#linearGradient12"
       id="linearGradient2"
       gradientUnits="userSpaceOnUse"
       x1="509.91336"
       y1="125.3877"
       x2="509.91336"
       y2="691.33936" /><linearGradient
       inkscape:collect="always"
       xlink:href="#linearGradient12"
       id="linearGradient3"
       gradientUnits="userSpaceOnUse"
       x1="509.91336"
       y1="125.3877"
       x2="509.91336"
       y2="691.33936" /><linearGradient
       inkscape:collect="always"
       xlink:href="#linearGradient12"
       id="linearGradient5"
       x1="769.5238"
       y1="448.33539"
       x2="769.5238"
       y2="481.63907"
       gradientUnits="userSpaceOnUse"
       gradientTransform="translate(13.449571,-26.258686)" /></defs><g
     inkscape:label="Layer 1"
     inkscape:groupmode="layer"
     id="layer1"><rect
       style="fill:url(#linearGradient20);fill-opacity:1;stroke:none;stroke-width:18.1788;stroke-dasharray:none;stroke-opacity:1;paint-order:markers fill stroke"
       id="rect11"
       width="1200"
       height="297.21027"
       x="0"
       y="289.48599" /><path
       id="path11"
       style="fill:url(#linearGradient18);fill-opacity:1;stroke:#d5f0e8;stroke-width:4.11788;stroke-dasharray:none;stroke-opacity:1;paint-order:stroke fill markers"
       d="m 249.27412,504.85176 v 36.20301 36.20301 h 7.54944 7.54945 V 541.26924 505.2807 l -7.55075,-0.21447 z m -30.81573,0.20509 -10.23169,0.20509 -11.50782,12.03327 -11.50912,12.03192 -11.57083,-12.03192 -11.57212,-12.03193 -10.27055,-0.20509 c -5.64938,-0.11314 -10.27115,-0.0476 -10.2706,0.14611 6.9e-4,0.2861 21.29808,23.21258 30.62809,32.97117 l 2.33237,2.43963 -13.4783,14.37504 c -7.41272,7.90643 -15.20485,16.15088 -17.31595,18.32134 l -3.83772,3.9463 h 10.30808 10.30807 l 12.30943,-13.06676 12.30938,-13.0681 8.92474,9.46496 c 4.90816,5.20548 10.47053,11.09571 12.36173,13.09088 l 3.43822,3.62861 10.03335,-0.19704 10.03328,-0.19571 -11.96758,-12.69678 c -6.58188,-6.98324 -14.28822,-15.23105 -17.12564,-18.32939 l -5.15806,-5.63393 16.35752,-17.19 c 8.99702,-9.45452 16.43554,-17.41952 16.53054,-17.70071 0.095,-0.28119 -4.43146,-0.41988 -10.05882,-0.30696 z m 68.56562,0.0898 v 36.05556 36.05557 h 32.13338 c 27.37167,0 32.67611,-0.1616 35.80625,-1.09115 14.28423,-4.24197 18.28997,-17.18291 15.71012,-50.7456 -0.5098,-6.63147 -2.01145,-9.89466 -6.43151,-13.96888 -6.62203,-6.10403 -5.08036,-5.88734 -43.41732,-6.1098 z m 139.66469,0.0482 c -19.43982,0 -35.57675,0.0772 -35.85986,0.17157 -0.46215,0.15405 -0.50498,10.30616 -0.24796,57.65029 l 0.0764,14.241 h 35.68827 35.68828 v -7.20629 -7.20628 H 433.895 405.75616 v -7.54945 -7.54944 h 25.39358 25.39359 V 540.88313 534.02 h -25.39359 -25.39358 v -7.22103 -7.22103 l 28.14021,0.18632 28.13884,0.18633 v -7.37787 -7.37786 z m -369.236378,0.34315 -3.088415,1.61659 c -10.411225,5.45091 -11.279203,7.87867 -11.533281,32.22052 -0.27006,25.87617 0.75625,29.51918 9.805424,34.82234 5.449599,3.19369 52.95172,4.69178 62.15155,1.95974 12.60592,-3.74356 14.37907,-8.13586 14.3751,-35.61723 -0.007,-22.75302 -0.29299,-24.13957 -6.146,-29.41628 -6.29775,-5.6777 -5.6763,-5.58568 -37.425549,-5.58568 z m 42.409332,13.90723 c 4.523076,0.21913 7.987106,0.6739 9.273266,1.40747 6.30516,3.59619 6.49039,37.67614 0.2225,40.91739 -3.16707,1.63777 -44.189844,1.56734 -46.844847,-0.0804 -3.816243,-2.36845 -4.030788,-3.47475 -4.030788,-20.80921 v -15.91925 l 2.268061,-2.26805 c 2.440392,-2.44038 25.542645,-3.90534 39.111808,-3.24792 z m 202.947556,0.0778 22.47675,0.21313 c 31.03192,0.29558 29.68303,-0.6871 29.68303,21.64165 0,22.09039 1.45073,21.04805 -29.68303,21.32261 l -22.47675,0.19839 v -21.68856 z"
       sodipodi:nodetypes="cccccccccsccccccsscccccccccccccccccsscccssssccssccccccccccccccccccccccsccssscsscssssscssccssccc" /><g
       id="g12"
       transform="matrix(0.93123562,0,0,0.93123562,-219.37575,-105.81189)"
       style="fill:url(#linearGradient13);stroke:#afe0d3;stroke-width:2.94797;stroke-linecap:butt;stroke-linejoin:miter;stroke-dasharray:none;stroke-opacity:0.376038;paint-order:stroke fill markers"><path
         id="path1"
         transform="translate(18.275813,-0.96188491)"
         d="m 597.56157,258.26658 c -2.29721,-0.007 -1.71941,-25.7256 -9.48336,-33.48955 -7.76395,-7.76395 -33.43873,-7.38772 -33.43181,-9.68493 0.007,-2.29721 25.72903,-1.72284 33.48955,-9.48336 7.76052,-7.76052 7.38772,-33.43873 9.68493,-33.43181 2.29721,0.007 1.79686,25.80306 9.48335,33.48955 7.68649,7.68649 33.43874,7.38772 33.43182,9.68493 -0.007,2.29721 -25.69725,1.69106 -33.48955,9.48336 -7.7923,7.7923 -7.38772,33.43873 -9.68493,33.43181 z"
         sodipodi:nodetypes="szszszszs"
         style="fill:url(#linearGradient1)" /><path
         id="path20"
         d="m 350.88681,379.76873 c -1.29831,-0.004 -0.97176,-14.5393 -5.3597,-18.92724 -4.38793,-4.38793 -18.89851,-4.1753 -18.8946,-5.47361 0.004,-1.29831 14.54124,-0.9737 18.92724,-5.3597 4.386,-4.386 4.1753,-18.89851 5.47361,-18.8946 1.29831,0.004 1.01553,14.58308 5.35969,18.92724 4.34416,4.34416 18.89852,4.1753 18.89461,5.47361 -0.004,1.29831 -14.52328,0.95574 -18.92724,5.3597 -4.40396,4.40396 -4.1753,18.89851 -5.47361,18.8946 z"
         sodipodi:nodetypes="szszszszs"
         style="fill:url(#linearGradient21);stroke-width:1.6661" /><path
         id="path5"
         style="fill:url(#linearGradient2);fill-opacity:1;stroke:#afe0d3;stroke-width:2.94797;stroke-linecap:butt;stroke-linejoin:miter;stroke-dasharray:none;stroke-opacity:0.376038;paint-order:stroke fill markers"
         d="m 512,180.35352 -61.83789,209.6914 -55.30859,55.3086 v 78.87304 l 63.7207,-36.78711 12.67773,21.95703 c 9.12197,-4.04255 18.49608,-8.58546 27.99805,-13.45312 l -1.25,-4.03906 14,-195.64453 13.28125,185.5957 c 6.67006,-3.83594 13.36788,-7.81808 20.08398,-12.01367 23.24198,-14.51938 44.43581,-29.86955 63.0918,-45.17774 l -34.61914,-34.61914 z m 117.14648,289.13086 c -13.6419,10.08557 -28.16007,20.00458 -43.43164,29.66796 l 43.43164,25.07422 z m -84.52539,53.98828 c -17.24597,9.47198 -34.26644,17.87775 -50.91992,25.33593 L 512,634.36328 530.47656,547.97266 Z" /><path
         id="ellipse4"
         style="fill:url(#linearGradient3);fill-opacity:1;stroke:#afe0d3;stroke-width:2.94798;stroke-linecap:butt;stroke-linejoin:miter;stroke-dasharray:none;stroke-opacity:0.376038;paint-order:stroke fill markers"
         d="M 454.93367,590.12892 A 253.84402,86.255562 0 0 0 322.7204,549.95084 l -2.66631,10.47125 a 70.750903,215.76899 88.948539 0 1 98.40996,28.9804 70.750903,215.76899 88.948539 0 1 25.31603,32.42073 70.750903,215.76899 88.948539 0 1 -214.43633,74.6978 A 70.750903,215.76899 88.948539 0 1 12.3135,629.74164 70.750903,215.76899 88.948539 0 1 185.85428,557.23125 l 13.68133,-12.64095 a 253.84402,86.255562 0 0 0 -223.2125,85.62457 253.84402,86.255562 0 0 0 253.84293,86.25449 253.84402,86.255562 0 0 0 253.84517,-86.25554 253.84402,86.255562 0 0 0 -29.07754,-40.0849 z"
         transform="matrix(0.85768809,-0.51417034,0.51048866,0.85988448,0,0)" /></g><path
       style="font-weight:800;font-size:64px;font-family:Orbitron;-inkscape-font-specification:'Orbitron Ultra-Bold';text-align:center;letter-spacing:4.69px;text-anchor:middle;fill:url(#linearGradient5);stroke:#d5f0e8;stroke-width:4;paint-order:stroke fill markers"
       d="m 375.36156,461.76855 v 0 -36.8 h -18.432 v -9.28 h 46.08 v 9.28 h -18.368 v 36.8 z m 73.36205,0 -13.632,-16.256 h 12.096 l 11.264,13.376 v 2.88 z m -36.224,0 v -46.016 h 36.8 q 2.56,0 4.608,1.28 2.112,1.216 3.392,3.328 1.28,2.112 1.28,4.608 v 12.16 q 0,2.496 -1.28,4.608 -1.28,2.048 -3.392,3.328 -2.048,1.216 -4.608,1.216 l -27.584,0.064 v 15.424 z m 9.6,-24.768 h 26.752 q 0.192,0 0.256,-0.064 0.128,-0.128 0.128,-0.256 v -11.328 q 0,-0.192 -0.128,-0.256 -0.064,-0.128 -0.256,-0.128 h -26.752 q -0.192,0 -0.32,0.128 -0.064,0.064 -0.064,0.256 v 11.328 q 0,0.128 0.064,0.256 0.128,0.064 0.32,0.064 z m 48.01804,24.768 v -36.864 q 0,-2.56 1.216,-4.608 1.28,-2.112 3.328,-3.328 2.112,-1.28 4.672,-1.28 h 27.584 q 2.56,0 4.608,1.28 2.112,1.216 3.392,3.328 1.28,2.048 1.28,4.608 v 36.864 h -9.344 v -15.168 h -27.52 v 15.168 h -9.216 z m 9.216,-24.384 h 27.52 v -12.032 q 0,-0.192 -0.128,-0.256 -0.064,-0.128 -0.256,-0.128 h -26.752 q -0.192,0 -0.32,0.128 -0.064,0.064 -0.064,0.256 v 12.032 z m 48.97804,24.384 v -46.08 h 36.8 q 2.56,0 4.608,1.28 2.112,1.216 3.392,3.328 1.28,2.048 1.28,4.608 v 27.648 q 0,2.56 -1.28,4.672 -1.28,2.048 -3.392,3.328 -2.048,1.216 -4.608,1.216 z m 9.536,-9.28 h 26.816 q 0.192,0 0.256,-0.064 0.128,-0.128 0.128,-0.32 v -26.752 q 0,-0.192 -0.128,-0.256 -0.064,-0.128 -0.256,-0.128 h -26.816 q -0.128,0 -0.256,0.128 -0.128,0.064 -0.128,0.256 v 26.752 q 0,0.192 0.128,0.32 0.128,0.064 0.256,0.064 z m 48.52997,9.28 v -46.08 h 42.496 v 9.28 h -33.152 v 9.088 h 26.688 v 9.344 h -26.688 v 9.088 h 33.152 v 9.28 z m 85.9881,-18.304 q -3.904,0 -3.904,-3.776 v -1.216 q 0,-3.84 3.904,-3.84 h 1.344 q 3.968,0 3.968,3.84 v 1.216 q 0,3.776 -3.968,3.776 h -1.344 z m 45.86002,18.304 v -46.08 h 42.496 v 9.28 h -33.152 v 9.088 h 26.688 v 9.344 h -26.688 v 18.368 z m 49.55398,0 v -46.08 h 9.152 v 46.08 z m 28.88205,0 q -2.56,0 -4.672,-1.216 -2.048,-1.28 -3.328,-3.328 -1.216,-2.112 -1.216,-4.672 v -27.648 q 0,-2.56 1.216,-4.608 1.28,-2.112 3.328,-3.328 2.112,-1.28 4.672,-1.28 h 27.584 q 2.56,0 4.608,1.28 2.112,1.216 3.392,3.328 1.28,2.048 1.28,4.608 v 3.968 h -9.344 v -3.52 q 0,-0.192 -0.128,-0.256 -0.064,-0.128 -0.256,-0.128 h -26.752 q -0.192,0 -0.32,0.128 -0.064,0.064 -0.064,0.256 v 26.752 q 0,0.192 0.064,0.32 0.128,0.064 0.32,0.064 h 26.752 q 0.192,0 0.256,-0.064 0.128,-0.128 0.128,-0.32 v -7.552 h -10.176 v -9.28 h 19.52 v 17.28 q 0,2.56 -1.28,4.672 -1.28,2.048 -3.392,3.328 -2.048,1.216 -4.608,1.216 z m 48.65799,0 v -46.08 h 9.216 v 18.368 h 28.608 v -18.368 h 9.216 v 46.08 h -9.216 v -18.368 h -28.608 v 18.368 z m 75.21803,0 v 0 -36.8 h -18.432 v -9.28 h 46.08 v 9.28 h -18.368 v 36.8 z m 69.54002,-18.304 q -3.904,0 -3.904,-3.776 v -1.216 q 0,-3.84 3.904,-3.84 h 1.344 q 3.968,0 3.968,3.84 v 1.216 q 0,3.776 -3.968,3.776 h -1.344 z m 61.15605,18.304 v 0 l -16.768,-46.08 h 9.792 l 10.56,28.864 10.56,-28.864 h 8.704 l 10.624,28.864 10.56,-28.864 h 9.792 l -16.768,46.08 h -7.168 l -11.392,-31.104 -11.328,31.104 z m 63.4421,0 v -46.08 h 9.152 v 46.08 z m 19.666,0 v -46.08 h 9.792 l 26.944,32.128 v -32.128 h 9.344 v 46.08 h -9.792 l -27.072,-32.256 v 32.256 z"
       id="text3"
       aria-label="TRADE • FIGHT • WIN" /></g></svg>
