<?xml version="1.0" encoding="UTF-8" standalone="no"?>
<!-- Created with Inkscape (http://www.inkscape.org/) -->

<svg
   width="640"
   height="320"
   viewBox="0 0 640 320"
   version="1.1"
   id="svg1"
   xml:space="preserve"
   inkscape:version="1.4 (86a8ad7, 2024-10-11)"
   sodipodi:docname="oxide-banner.svg"
   inkscape:export-filename="oxide-banner.png"
   inkscape:export-xdpi="192"
   inkscape:export-ydpi="192"
   xmlns:inkscape="http://www.inkscape.org/namespaces/inkscape"
   xmlns:sodipodi="http://sodipodi.sourceforge.net/DTD/sodipodi-0.dtd"
   xmlns:xlink="http://www.w3.org/1999/xlink"
   xmlns="http://www.w3.org/2000/svg"
   xmlns:svg="http://www.w3.org/2000/svg"><sodipodi:namedview
     id="namedview1"
     pagecolor="#ffffff"
     bordercolor="#000000"
     borderopacity="0.25"
     inkscape:showpageshadow="2"
     inkscape:pageopacity="0.0"
     inkscape:pagecheckerboard="0"
     inkscape:deskcolor="#d1d1d1"
     inkscape:document-units="px"
     inkscape:zoom="1.1040681"
     inkscape:cx="927.02615"
     inkscape:cy="218.73651"
     inkscape:window-width="5120"
     inkscape:window-height="1369"
     inkscape:window-x="2552"
     inkscape:window-y="-8"
     inkscape:window-maximized="1"
     inkscape:current-layer="layer1" /><defs
     id="defs1"><linearGradient
       id="linearGradient19"
       inkscape:collect="always"><stop
         style="stop-color:#1b2637;stop-opacity:1;"
         offset="0"
         id="stop19" /><stop
         style="stop-color:#06070c;stop-opacity:1;"
         offset="1"
         id="stop20" /></linearGradient><linearGradient
       id="linearGradient12"
       inkscape:collect="always"><stop
         style="stop-color:#b6bdb9;stop-opacity:1;"
         offset="0"
         id="stop12" /><stop
         style="stop-color:#33404b;stop-opacity:1;"
         offset="1"
         id="stop13" /></linearGradient><linearGradient
       inkscape:collect="always"
       xlink:href="#linearGradient12"
       id="linearGradient13"
       x1="509.91336"
       y1="125.3877"
       x2="509.91336"
       y2="691.33936"
       gradientUnits="userSpaceOnUse" /><linearGradient
       inkscape:collect="always"
       xlink:href="#linearGradient12"
       id="linearGradient18"
       x1="513.2392"
       y1="776.97516"
       x2="513.2392"
       y2="968.08655"
       gradientUnits="userSpaceOnUse"
       gradientTransform="matrix(0.49232642,0,0,0.49232642,189.80062,-251.37313)" /><linearGradient
       inkscape:collect="always"
       xlink:href="#linearGradient19"
       id="linearGradient20"
       x1="217.75496"
       y1="-10.611897"
       x2="621.79376"
       y2="1038.4546"
       gradientUnits="userSpaceOnUse"
       gradientTransform="matrix(0.53333335,0,0,0.51612906,0,2.5563236e-5)" /><linearGradient
       inkscape:collect="always"
       xlink:href="#linearGradient12"
       id="linearGradient21"
       gradientUnits="userSpaceOnUse"
       x1="509.91336"
       y1="125.3877"
       x2="509.91336"
       y2="691.33936"
       gradientTransform="matrix(0.56516829,0,0,0.56516829,13.163954,233.80464)" /><linearGradient
       inkscape:collect="always"
       xlink:href="#linearGradient12"
       id="linearGradient1"
       gradientUnits="userSpaceOnUse"
       x1="509.91336"
       y1="125.3877"
       x2="509.91336"
       y2="691.33936" /><linearGradient
       inkscape:collect="always"
       xlink:href="#linearGradient12"
       id="linearGradient2"
       gradientUnits="userSpaceOnUse"
       x1="509.91336"
       y1="125.3877"
       x2="509.91336"
       y2="691.33936" /><linearGradient
       inkscape:collect="always"
       xlink:href="#linearGradient12"
       id="linearGradient3"
       gradientUnits="userSpaceOnUse"
       x1="509.91336"
       y1="125.3877"
       x2="509.91336"
       y2="691.33936" /><linearGradient
       inkscape:collect="always"
       xlink:href="#linearGradient12"
       id="linearGradient5"
       x1="769.5238"
       y1="448.33539"
       x2="769.5238"
       y2="481.63907"
       gradientUnits="userSpaceOnUse"
       gradientTransform="matrix(0.42125163,0,0,0.42125163,97.296448,25.204496)" /><linearGradient
       inkscape:collect="always"
       xlink:href="#linearGradient12"
       id="linearGradient4"
       gradientUnits="userSpaceOnUse"
       x1="509.91336"
       y1="125.3877"
       x2="509.91336"
       y2="691.33936" /></defs><g
     inkscape:label="Layer 1"
     inkscape:groupmode="layer"
     id="layer1"><rect
       style="fill:url(#linearGradient20);fill-opacity:1;stroke:none;stroke-width:13.7755;stroke-dasharray:none;stroke-opacity:1;paint-order:markers fill stroke"
       id="rect11"
       width="640"
       height="320"
       x="0"
       y="0" /><path
       id="path11"
       style="fill:url(#linearGradient18);fill-opacity:1;stroke:#d5f0e8;stroke-width:2.95396;stroke-dasharray:none;stroke-opacity:1;paint-order:stroke fill markers"
       d="m 437.64963,138.06405 v 25.97021 25.97022 h 5.41558 5.4156 v -25.81637 -25.81636 l -5.41653,-0.15385 z m -22.10566,0.14713 -7.3397,0.14712 -8.25513,8.63206 -8.25607,8.63108 -8.30033,-8.63108 -8.30125,-8.6311 -7.36758,-0.14712 c -4.05258,-0.0812 -7.36801,-0.0341 -7.36761,0.10481 4.9e-4,0.20523 15.27817,16.65153 21.97105,23.65185 l 1.67312,1.75007 -9.66865,10.31193 c -5.31751,5.67167 -10.9072,11.58583 -12.42159,13.14281 l -2.75299,2.83087 h 7.3945 7.39449 l 8.83017,-9.37343 8.83013,-9.3744 6.40216,6.78969 c 3.52086,3.73414 7.51103,7.9595 8.86768,9.39073 l 2.46641,2.60299 7.19742,-0.14135 7.19737,-0.14039 -8.58494,-9.10803 c -4.72151,-5.00943 -10.24965,-10.92599 -12.28508,-13.14859 l -3.70013,-4.0415 11.73406,-12.33123 c 6.45401,-6.78219 11.79003,-12.49589 11.85818,-12.6976 0.0682,-0.20171 -3.1789,-0.3012 -7.21569,-0.22019 z m 49.18553,0.0644 v 25.86444 25.86445 h 23.05087 c 19.63506,0 23.4402,-0.11592 25.68561,-0.78273 10.24678,-3.04298 13.1203,-12.32616 11.26965,-36.40234 -0.36571,-4.75708 -1.44292,-7.09793 -4.61365,-10.02057 -4.75031,-4.37872 -3.64439,-4.22328 -31.1454,-4.38286 z m 100.18843,0.0346 c -13.94515,0 -25.52097,0.0554 -25.72406,0.12308 -0.33153,0.1105 -0.36225,7.39312 -0.17788,41.35541 l 0.0548,10.21577 h 25.60097 25.60098 v -5.16943 -5.16942 h -20.18538 -20.18539 v -5.4156 -5.41558 h 18.21607 18.21609 v -4.92326 -4.92327 h -18.21609 -18.21607 v -5.17999 -5.18 l 20.18637,0.13365 20.18539,0.13367 v -5.29252 -5.2925 z m -264.87162,0.24616 -2.21548,1.15966 c -7.46848,3.91021 -8.09113,5.65176 -8.27339,23.11337 -0.19373,18.56226 0.54249,21.17558 7.03392,24.9798 3.90927,2.29099 37.9849,3.36564 44.5844,1.40582 9.04285,-2.68545 10.31482,-5.83626 10.31197,-25.55001 -0.005,-16.32187 -0.21018,-17.31651 -4.40883,-21.10176 -4.51769,-4.07289 -4.07189,-4.00688 -26.84721,-4.00688 z m 30.42232,9.97635 c 3.24463,0.15719 5.72955,0.48342 6.65218,1.00964 4.523,2.57973 4.65588,27.02696 0.15961,29.35207 -2.2719,1.17486 -31.69958,1.12433 -33.60414,-0.0577 -2.73758,-1.69901 -2.89149,-2.49261 -2.89149,-14.92748 v -11.41966 l 1.62699,-1.62699 c 1.75062,-1.7506 18.32302,-2.80149 28.05685,-2.32989 z m 145.58438,0.0558 16.12369,0.15288 c 22.26074,0.21204 21.29311,-0.49289 21.29311,15.52463 0,15.84653 1.04068,15.09881 -21.29311,15.29577 l -16.12369,0.14231 V 164.1458 Z"
       sodipodi:nodetypes="cccccccccsccccccsscccccccccccccccccsscccssssccssccccccccccccccccccccccsccssscsscssssscssccssccc" /><g
       id="g12"
       transform="matrix(0.55180769,0,0,0.55180769,-138.33575,-67.596503)"
       style="fill:url(#linearGradient13);stroke:#afe0d3;stroke-width:2.94797;stroke-linecap:butt;stroke-linejoin:miter;stroke-dasharray:none;stroke-opacity:0.376038;paint-order:stroke fill markers"><g
         id="g2"
         style="fill:url(#linearGradient4)"
         transform="matrix(0.86082413,0,0,0.86082413,72.251268,55.977413)"><path
           id="path1"
           transform="translate(18.275813,-0.96188491)"
           d="m 597.56157,258.26658 c -2.29721,-0.007 -1.71941,-25.7256 -9.48336,-33.48955 -7.76395,-7.76395 -33.43873,-7.38772 -33.43181,-9.68493 0.007,-2.29721 25.72903,-1.72284 33.48955,-9.48336 7.76052,-7.76052 7.38772,-33.43873 9.68493,-33.43181 2.29721,0.007 1.79686,25.80306 9.48335,33.48955 7.68649,7.68649 33.43874,7.38772 33.43182,9.68493 -0.007,2.29721 -25.69725,1.69106 -33.48955,9.48336 -7.7923,7.7923 -7.38772,33.43873 -9.68493,33.43181 z"
           sodipodi:nodetypes="szszszszs"
           style="fill:url(#linearGradient1)" /><path
           id="path20"
           d="m 350.88681,379.76873 c -1.29831,-0.004 -0.97176,-14.5393 -5.3597,-18.92724 -4.38793,-4.38793 -18.89851,-4.1753 -18.8946,-5.47361 0.004,-1.29831 14.54124,-0.9737 18.92724,-5.3597 4.386,-4.386 4.1753,-18.89851 5.47361,-18.8946 1.29831,0.004 1.01553,14.58308 5.35969,18.92724 4.34416,4.34416 18.89852,4.1753 18.89461,5.47361 -0.004,1.29831 -14.52328,0.95574 -18.92724,5.3597 -4.40396,4.40396 -4.1753,18.89851 -5.47361,18.8946 z"
           sodipodi:nodetypes="szszszszs"
           style="fill:url(#linearGradient21);stroke-width:1.6661" /><path
           id="path5"
           style="fill:url(#linearGradient2);fill-opacity:1;stroke:#afe0d3;stroke-width:2.94797;stroke-linecap:butt;stroke-linejoin:miter;stroke-dasharray:none;stroke-opacity:0.376038;paint-order:stroke fill markers"
           d="m 512,180.35352 -61.83789,209.6914 -55.30859,55.3086 v 78.87304 l 63.7207,-36.78711 12.67773,21.95703 c 9.12197,-4.04255 18.49608,-8.58546 27.99805,-13.45312 l -1.25,-4.03906 14,-195.64453 13.28125,185.5957 c 6.67006,-3.83594 13.36788,-7.81808 20.08398,-12.01367 23.24198,-14.51938 44.43581,-29.86955 63.0918,-45.17774 l -34.61914,-34.61914 z m 117.14648,289.13086 c -13.6419,10.08557 -28.16007,20.00458 -43.43164,29.66796 l 43.43164,25.07422 z m -84.52539,53.98828 c -17.24597,9.47198 -34.26644,17.87775 -50.91992,25.33593 L 512,634.36328 530.47656,547.97266 Z" /><path
           id="ellipse4"
           style="fill:url(#linearGradient3);fill-opacity:1;stroke:#afe0d3;stroke-width:2.94798;stroke-linecap:butt;stroke-linejoin:miter;stroke-dasharray:none;stroke-opacity:0.376038;paint-order:stroke fill markers"
           d="M 454.93367,590.12892 A 253.84402,86.255562 0 0 0 322.7204,549.95084 l -2.66631,10.47125 a 70.750903,215.76899 88.948539 0 1 98.40996,28.9804 70.750903,215.76899 88.948539 0 1 25.31603,32.42073 70.750903,215.76899 88.948539 0 1 -214.43633,74.6978 A 70.750903,215.76899 88.948539 0 1 12.3135,629.74164 70.750903,215.76899 88.948539 0 1 185.85428,557.23125 l 13.68133,-12.64095 a 253.84402,86.255562 0 0 0 -223.2125,85.62457 253.84402,86.255562 0 0 0 253.84293,86.25449 253.84402,86.255562 0 0 0 253.84517,-86.25554 253.84402,86.255562 0 0 0 -29.07754,-40.0849 z"
           transform="matrix(0.85768809,-0.51417034,0.51048866,0.85988448,0,0)" /></g></g><path
       style="font-weight:800;font-size:64px;font-family:Orbitron;-inkscape-font-specification:'Orbitron Ultra-Bold';text-align:center;letter-spacing:4.69px;text-anchor:middle;fill:url(#linearGradient5);stroke:#d5f0e8;stroke-width:1.685;paint-order:stroke fill markers"
       d="m 249.75244,230.78676 v 0 -15.50206 h -7.76451 v -3.90922 h 19.41128 v 3.90922 h -7.73755 v 15.50206 z m 30.90389,0 -5.74251,-6.84787 h 5.09547 l 4.74497,5.63466 v 1.21321 z m -15.25942,0 v -19.38432 h 15.50206 q 1.0784,0 1.94112,0.5392 0.88969,0.51225 1.42889,1.40193 0.5392,0.88968 0.5392,1.94113 v 5.12242 q 0,1.05144 -0.5392,1.94112 -0.5392,0.86273 -1.42889,1.40193 -0.86272,0.51224 -1.94112,0.51224 l -11.6198,0.0269 v 6.49738 z m 4.04402,-10.43356 h 11.26932 q 0.0809,0 0.10784,-0.0269 0.0539,-0.0539 0.0539,-0.10784 v -4.77194 q 0,-0.0809 -0.0539,-0.10784 -0.0269,-0.0539 -0.10784,-0.0539 h -11.26932 q -0.0809,0 -0.1348,0.0539 -0.0269,0.0269 -0.0269,0.10784 v 4.77194 q 0,0.0539 0.0269,0.10784 0.0539,0.0269 0.1348,0.0269 z m 20.22767,10.43356 v -15.52902 q 0,-1.07841 0.51224,-1.94113 0.53921,-0.88968 1.40193,-1.40193 0.88968,-0.5392 1.96808,-0.5392 h 11.61981 q 1.07841,0 1.94113,0.5392 0.88969,0.51225 1.42889,1.40193 0.5392,0.86272 0.5392,1.94113 v 15.52902 h -3.93618 v -6.38955 h -11.59285 v 6.38955 z m 3.88225,-10.2718 h 11.59285 v -5.0685 q 0,-0.0809 -0.0539,-0.10784 -0.0269,-0.0539 -0.10784,-0.0539 h -11.26933 q -0.0809,0 -0.1348,0.0539 -0.0269,0.0269 -0.0269,0.10784 z m 20.63208,10.2718 V 211.37548 H 329.685 q 1.0784,0 1.94112,0.5392 0.88969,0.51225 1.42889,1.40193 0.5392,0.86272 0.5392,1.94113 v 11.64677 q 0,1.0784 -0.5392,1.96808 -0.5392,0.86272 -1.42889,1.40193 -0.86272,0.51224 -1.94112,0.51224 z m 4.01706,-3.90921 h 11.29629 q 0.0809,0 0.10784,-0.0269 0.0539,-0.0539 0.0539,-0.1348 v -11.26933 q 0,-0.0809 -0.0539,-0.10784 -0.0269,-0.0539 -0.10784,-0.0539 h -11.29629 q -0.0539,0 -0.10784,0.0539 -0.0539,0.0269 -0.0539,0.10784 v 11.26933 q 0,0.0809 0.0539,0.1348 0.0539,0.0269 0.10784,0.0269 z m 20.44333,3.90921 v -19.41128 h 17.90151 v 3.90922 h -13.96534 v 3.82833 h 11.24237 v 3.93618 h -11.24237 v 3.82834 h 13.96534 v 3.90921 z m 36.22263,-7.71059 q -1.64457,0 -1.64457,-1.59065 v -0.51224 q 0,-1.6176 1.64457,-1.6176 h 0.56616 q 1.67152,0 1.67152,1.6176 v 0.51224 q 0,1.59065 -1.67152,1.59065 z m 19.31861,7.71059 v -19.41128 h 17.90151 v 3.90922 h -13.96534 v 3.82833 h 11.24236 v 3.93618 h -11.24236 v 7.73755 z m 20.87469,0 v -19.41128 h 3.85529 v 19.41128 z m 12.16661,0 q -1.0784,0 -1.96808,-0.51224 -0.86273,-0.53921 -1.40193,-1.40193 -0.51225,-0.88968 -0.51225,-1.96808 v -11.64677 q 0,-1.07841 0.51225,-1.94113 0.5392,-0.88968 1.40193,-1.40193 0.88968,-0.5392 1.96808,-0.5392 h 11.61981 q 1.0784,0 1.94112,0.5392 0.88968,0.51225 1.42889,1.40193 0.5392,0.86272 0.5392,1.94113 v 1.67153 h -3.93617 v -1.48281 q 0,-0.0809 -0.0539,-0.10784 -0.0269,-0.0539 -0.10784,-0.0539 h -11.26933 q -0.0809,0 -0.1348,0.0539 -0.0269,0.0269 -0.0269,0.10784 v 11.26933 q 0,0.0809 0.0269,0.1348 0.0539,0.0269 0.1348,0.0269 h 11.26933 q 0.0809,0 0.10784,-0.0269 0.0539,-0.0539 0.0539,-0.1348 v -3.1813 h -4.28666 v -3.90921 h 8.22283 v 7.27923 q 0,1.0784 -0.5392,1.96808 -0.53921,0.86272 -1.42889,1.40193 -0.86272,0.51224 -1.94112,0.51224 z m 20.49726,0 v -19.41128 h 3.88225 v 7.73755 h 12.05117 v -7.73755 h 3.88226 v 19.41128 h -3.88226 v -7.73755 h -12.05117 v 7.73755 z m 31.68572,0 v 0 -15.50206 h -7.76451 v -3.90922 h 19.41127 v 3.90922 h -7.73755 v 15.50206 z m 29.29385,-7.71059 q -1.64457,0 -1.64457,-1.59065 v -0.51224 q 0,-1.6176 1.64457,-1.6176 h 0.56616 q 1.67152,0 1.67152,1.6176 v 0.51224 q 0,1.59065 -1.67152,1.59065 z m 25.76211,7.71059 v 0 l -7.06355,-19.41128 h 4.12489 l 4.44842,12.15901 4.44841,-12.15901 h 3.66658 l 4.47538,12.15901 4.44842,-12.15901 h 4.12489 l -7.06355,19.41128 h -3.01953 l -4.79889,-13.10261 -4.77195,13.10261 z m 26.72508,0 v -19.41128 h 3.8553 v 19.41128 z m 8.28434,0 v -19.41128 h 4.12489 l 11.35021,13.53397 v -13.53397 h 3.93618 v 19.41128 h -4.1249 l -11.40413,-13.58789 v 13.58789 z"
       id="text3"
       aria-label="TRADE • FIGHT • WIN" /><rect
       style="fill:none;stroke:#d5f0e8;stroke-width:2.5;paint-order:stroke fill markers;stroke-dasharray:none"
       id="rect4"
       width="347.12701"
       height="1.2809116"
       x="241.77205"
       y="200.46266" /></g></svg>
